<svg xmlns="http://www.w3.org/2000/svg" width="935.597" height="932.012" viewBox="0 0 935.597 932.012">
  <g id="Groupe_42" data-name="Groupe 42" transform="translate(-516.211 -84.918)">
    <path id="mobile-top-hands" d="M31.435,140.166l-5.265-9.652a18.345,18.345,0,0,1-1.046-2.285c11.9,2.7,23.562-4.443,27.272-16.715a18.028,18.028,0,0,1,1.376,2.14l5.263,9.65a1.719,1.719,0,0,0,2.4.729,1.935,1.935,0,0,0,.6-2.565l-5.265-9.648a21.617,21.617,0,0,0-3.437-4.681,28.051,28.051,0,0,0-3.184-17.081l-3.8-6.966a7.185,7.185,0,0,0-10.038-3.048l-1.655,1.013a6.11,6.11,0,0,0-11.154,2.027,5.82,5.82,0,0,0-4.715.625,6.441,6.441,0,0,0-2.868,4.009,5.82,5.82,0,0,0-4.716.624,6.441,6.441,0,0,0-2.869,4.01,5.94,5.94,0,0,0-6.576,2.39,7.219,7.219,0,0,0-.326,7.522l.017.03L8.621,115.43a25.765,25.765,0,0,0,12.446,11.484,22.527,22.527,0,0,0,2.1,5.436L28.432,142a1.716,1.716,0,0,0,2.389.709,1.929,1.929,0,0,0,.614-2.545Zm6.851-56.508a3.413,3.413,0,0,1,4.768,1.448l3.8,6.964c5.475,10.036,2.949,22.688-5.786,29s-20.717,4.124-27.457-5a6.244,6.244,0,0,0,5.045-4.805,5.82,5.82,0,0,0,4.714-.624,6.441,6.441,0,0,0,2.869-4.008,5.947,5.947,0,0,0,6.739-2.638,17.081,17.081,0,0,0,1.512,3.735,1.882,1.882,0,0,0,2.634.8,2.119,2.119,0,0,0,.665-2.815c-2.726-4.992-1.27-9.427.827-10.71a2.033,2.033,0,0,0,.936-1.777,2.178,2.178,0,0,0-.987-1.807,1.8,1.8,0,0,0-1.921-.032L27.951,96.7a2.627,2.627,0,0,1-3.677-1.111,2.956,2.956,0,0,1,.92-3.928l13.093-8ZM17.98,105.98,12.32,95.613l-.019-.03a2.753,2.753,0,0,1,.884-3.651A2.45,2.45,0,0,1,16.6,93l5.658,10.369.013.024a2.753,2.753,0,0,1-.868,3.655A2.449,2.449,0,0,1,17.984,106l-.006-.016Zm11.941-5.664.276-.167a2.554,2.554,0,0,1-1.828,2.5,2.492,2.492,0,0,1-2.793-1.279l-.013-.024-.173-.317a6.028,6.028,0,0,0,4.531-.717Zm-6.2-12.579-.5.309a6.636,6.636,0,0,0-2.848,3.793l-.465-.859a.04.04,0,0,1-.011-.02,2.787,2.787,0,0,1,.577-3.426,2.371,2.371,0,0,1,3.252.2ZM31.306,83.1l-4.1,2.5a2.7,2.7,0,0,1,1.138-2.916,2.381,2.381,0,0,1,2.96.414ZM4.739,100.247l-.009-.014A2.756,2.756,0,0,1,5.6,96.6,2.446,2.446,0,0,1,9.008,97.6l.013.024.022.039,5.647,10.343a2.754,2.754,0,0,1-.886,3.633,2.446,2.446,0,0,1-3.407-1.028l-5.66-10.369Zm435.779,21.425,5.082-9.319a16.7,16.7,0,0,1,1.307-2.025c3.881,12,15.556,19.114,27.313,16.638a17.134,17.134,0,0,1-1.022,2.254l-5.083,9.315a1.9,1.9,0,0,0,.635,2.508,1.684,1.684,0,0,0,2.37-.672l5.082-9.317a21,21,0,0,0,2.016-5.313,24.293,24.293,0,0,0,12.12-10.968l6.846-12.55a7.1,7.1,0,0,0-2.374-9.346,6.177,6.177,0,0,0-2.584-.871l7.7-14.114a6.987,6.987,0,0,0,.115-6.432,6.275,6.275,0,0,0-5.086-3.523A6.808,6.808,0,0,0,492,60.594a6.02,6.02,0,0,0-7.489.959,6.179,6.179,0,0,0-5.425-2.9,6.242,6.242,0,0,0-5.205,3.32l-.089.164a6.153,6.153,0,0,0-5.4-2.656,6.251,6.251,0,0,0-5.069,3.314L448.806,89.4a26.505,26.505,0,0,0-2.906,16.654,20.194,20.194,0,0,0-3.3,4.466l-5.082,9.319a1.9,1.9,0,0,0,.663,2.454,1.681,1.681,0,0,0,2.34-.617Zm17.288-40.707,8.812-16.153a2.4,2.4,0,0,1,3.375-.977,2.7,2.7,0,0,1,.923,3.572l-8.825,16.171a2.081,2.081,0,0,0,.7,2.754,1.849,1.849,0,0,0,2.6-.739l8.81-16.147.026-.045,2.951-5.41a2.4,2.4,0,0,1,3.33-.91,2.7,2.7,0,0,1,.972,3.491L469.674,88.213a2.081,2.081,0,0,0,.7,2.752v0a1.849,1.849,0,0,0,2.6-.739l11.787-21.6.039-.073,1.914-3.507a2.4,2.4,0,0,1,3.379-.96A2.7,2.7,0,0,1,491,67.661l-13.74,25.186a2.079,2.079,0,0,0,.73,2.691,1.845,1.845,0,0,0,2.567-.677l11.787-21.6a2.4,2.4,0,0,1,3.38-.958,2.7,2.7,0,0,1,.906,3.577L486.024,95.315l-.039.069-4.477,8.206a4.155,4.155,0,0,1-5.82,1.649,1.849,1.849,0,0,0-2.6.741l0,.006a2.082,2.082,0,0,0,.706,2.75,7.856,7.856,0,0,0,10.96-3.042c.015-.03.034-.053.05-.083l4.5-8.243a2.577,2.577,0,0,1,3.635-1,2.9,2.9,0,0,1,.949,3.847l-6.847,12.55c-5.57,10.209-17.906,13.7-27.553,7.809s-12.95-18.95-7.379-29.158ZM238.974,84.393,238.91,73.63a17.284,17.284,0,0,1,.173-2.443,22.949,22.949,0,0,0,31.517-.045,17.727,17.727,0,0,1,.179,2.492V84.391a1.863,1.863,0,0,0,.85,1.64,1.653,1.653,0,0,0,1.768,0,1.863,1.863,0,0,0,.85-1.64V73.634a21.4,21.4,0,0,0-.763-5.67,26.189,26.189,0,0,0,5.31-16.017l0-.378V44.291a7.474,7.474,0,0,0-7.253-7.678h-1.368l4.377-26.288a6.625,6.625,0,0,0-5.1-7.7,6.323,6.323,0,0,0-7.277,5.392l-3.167,19.008-3.565-21.39A6.323,6.323,0,0,0,248.169.242a6.625,6.625,0,0,0-5.1,7.7l3.891,20.513a6.1,6.1,0,0,0-6.378,2.618,5.99,5.99,0,0,0-6.471-.38,6.65,6.65,0,0,0-3.278,5.873l0,.928V52.055a26.18,26.18,0,0,0,5.352,15.958,21.393,21.393,0,0,0-.752,5.615V84.393A1.86,1.86,0,0,0,236.3,86a1.653,1.653,0,0,0,1.747,0,1.918,1.918,0,0,0,.927-1.608Zm32.569-43.749a3.556,3.556,0,0,1,3.444,3.645v7.28c0,.15,0,.3,0,.445q0,.088,0,.175c-.069,11.612-8.9,21.035-19.872,21.2s-20.06-8.976-20.447-20.582a6.06,6.06,0,0,0,4.9,1.759,6.207,6.207,0,0,0,4.48-2.73,6,6,0,0,0,5.1.943,6.364,6.364,0,0,0,4.037-3.426,6.173,6.173,0,0,0,3.249.942h3.009a14.429,14.429,0,0,0-2.551,8.531,1.908,1.908,0,1,0,3.809,0c0-5.566,3.355-8.531,5.777-8.531a2.019,2.019,0,0,0,0-4.031H256.431a2.816,2.816,0,0,1-.006-5.623h15.117ZM245.14,46.8l-1.9-11.382a2.609,2.609,0,0,1,2.006-3.034,2.49,2.49,0,0,1,2.867,2.123l1.9,11.384a2.609,2.609,0,0,1-2.006,3.034,2.49,2.49,0,0,1-2.867-2.123ZM268.795,6.592A2.613,2.613,0,0,1,270.8,9.626l-4.5,26.989h-5.023l4.649-27.9a2.492,2.492,0,0,1,2.863-2.126Zm-21.972.63A2.607,2.607,0,0,1,248.84,4.2,2.49,2.49,0,0,1,251.7,6.334l5.045,30.281h-.322a6.207,6.207,0,0,0-3.858,1.369l-.7-4.177,0-.01-.006-.035L246.823,7.224Zm-10.2,26.77a2.49,2.49,0,0,1,2.865,2.124l1.9,11.382a2.609,2.609,0,0,1-2.007,3.032,2.49,2.49,0,0,1-2.865-2.124l-1.9-11.382a2.611,2.611,0,0,1,2.007-3.032Z" transform="translate(729.404 84.778)" fill="#fff"/>
    <path id="mobile-bottom-hands" d="M498.141,3.132l5.579,9.569a17.353,17.353,0,0,1,1.109,2.266,24.736,24.736,0,0,0-28.9,16.571,17.74,17.74,0,0,1-1.458-2.121l-5.577-9.567a1.885,1.885,0,0,0-2.545-.723,1.846,1.846,0,0,0-.639,2.543l5.579,9.565a21.573,21.573,0,0,0,3.642,4.641A26.288,26.288,0,0,0,478.3,52.809l4.029,6.906a7.88,7.88,0,0,0,10.638,3.022l1.754-1a6.875,6.875,0,0,0,6.645,2.729,6.46,6.46,0,0,0,5.175-4.738,6.537,6.537,0,0,0,5-.619,6.422,6.422,0,0,0,3.039-3.974,6.537,6.537,0,0,0,5-.619,6.422,6.422,0,0,0,3.04-3.975,6.521,6.521,0,0,0,6.968-2.369,6.768,6.768,0,0,0,.345-7.457l-.018-.029-7.6-13.026a26.7,26.7,0,0,0-13.189-11.385,21.419,21.419,0,0,0-2.224-5.389l-5.581-9.569a1.883,1.883,0,0,0-2.531-.7,1.841,1.841,0,0,0-.651,2.523Zm-7.26,56.02a3.742,3.742,0,0,1-5.053-1.436l-4.029-6.9c-5.8-9.949-3.127-22.493,6.132-28.745s21.955-4.088,29.1,4.957a6.448,6.448,0,0,0-5.347,4.764,6.537,6.537,0,0,0-5,.619,6.422,6.422,0,0,0-3.04,3.973A6.506,6.506,0,0,0,496.5,39a16.4,16.4,0,0,0-1.6-3.7,2.063,2.063,0,0,0-2.792-.793,2.021,2.021,0,0,0-.7,2.791c2.888,4.949,1.345,9.346-.876,10.617a1.982,1.982,0,0,0-.992,1.762,2.13,2.13,0,0,0,1.046,1.791,2.02,2.02,0,0,0,2.036.031l9.214-5.266a2.881,2.881,0,0,1,3.9,1.1,2.82,2.82,0,0,1-.975,3.895l-13.876,7.93ZM512.4,37.024l6,10.278.02.029a2.628,2.628,0,0,1-.937,3.619,2.685,2.685,0,0,1-3.62-1.055l-6-10.279-.014-.023a2.626,2.626,0,0,1,.919-3.623,2.686,2.686,0,0,1,3.626,1.037l.006.016Zm-12.654,5.615-.292.166a2.557,2.557,0,0,1,1.937-2.482,2.708,2.708,0,0,1,2.959,1.268l.014.023.183.314A6.767,6.767,0,0,0,499.747,42.639Zm6.568,12.471.533-.307a6.643,6.643,0,0,0,3.019-3.76l.493.852a.039.039,0,0,1,.012.02,2.6,2.6,0,0,1-4.058,3.2ZM498.279,59.7l4.34-2.481a2.6,2.6,0,0,1-1.205,2.891,2.652,2.652,0,0,1-3.137-.41Zm28.154-16.994.01.014a2.629,2.629,0,0,1-.917,3.606,2.685,2.685,0,0,1-3.616-1L521.9,45.3l-.024-.039L515.888,35.01a2.628,2.628,0,0,1,.939-3.6,2.683,2.683,0,0,1,3.61,1.02l6,10.279ZM64.623,21.467l-5.386,9.238a16.476,16.476,0,0,1-1.385,2.008A25.394,25.394,0,0,0,28.907,16.219a16.339,16.339,0,0,1,1.083-2.234L35.376,4.75A1.81,1.81,0,0,0,34.7,2.263a1.849,1.849,0,0,0-2.512.666l-5.386,9.237a20.015,20.015,0,0,0-2.137,5.268A25.221,25.221,0,0,0,11.825,28.307L4.571,40.748a6.779,6.779,0,0,0,2.515,9.268,6.872,6.872,0,0,0,2.738.863L1.661,64.87a6.532,6.532,0,0,0-.122,6.376,6.66,6.66,0,0,0,5.39,3.493,6.564,6.564,0,0,0,3.136,7.279A6.708,6.708,0,0,0,18,81.067a6.692,6.692,0,0,0,11.265-.418l.095-.162a6.693,6.693,0,0,0,11.1-.652L55.837,53.463a24.823,24.823,0,0,0,3.08-16.51,20.167,20.167,0,0,0,3.5-4.428L67.8,23.287a1.811,1.811,0,0,0-.7-2.432,1.85,1.85,0,0,0-2.479.612ZM46.3,61.823,36.964,77.837a2.637,2.637,0,0,1-3.577.969,2.582,2.582,0,0,1-.979-3.541L41.76,59.233a1.987,1.987,0,0,0-.74-2.731,2.029,2.029,0,0,0-2.758.732L28.926,73.243l-.028.045-3.127,5.363a2.637,2.637,0,0,1-3.529.9,2.582,2.582,0,0,1-1.031-3.461L33.725,54.637a1.987,1.987,0,0,0-.74-2.729v0a2.029,2.029,0,0,0-2.758.732L17.736,74.057l-.041.072-2.028,3.477a2.636,2.636,0,0,1-3.581.952,2.582,2.582,0,0,1-.961-3.546L25.685,50.043a1.987,1.987,0,0,0-.774-2.668,2.03,2.03,0,0,0-2.72.672L9.7,69.464a2.637,2.637,0,0,1-3.582.95,2.582,2.582,0,0,1-.96-3.546L16.4,47.6l.041-.068,4.745-8.135a4.563,4.563,0,0,1,6.167-1.635,2.029,2.029,0,0,0,2.75-.734l0-.006a1.989,1.989,0,0,0-.748-2.727,8.633,8.633,0,0,0-11.615,3.016c-.016.029-.036.053-.053.082l-4.765,8.172a2.831,2.831,0,0,1-3.852,1,2.771,2.771,0,0,1-1.005-3.814L15.325,30.3a21.492,21.492,0,0,1,29.2-7.742,21.045,21.045,0,0,1,7.82,28.907Zm231.9-3.4.067,10.67a16.049,16.049,0,0,1-.184,2.422,25.553,25.553,0,0,0-33.4.045,16.4,16.4,0,0,1-.189-2.471V58.426a1.816,1.816,0,0,0-.9-1.626,1.855,1.855,0,0,0-1.874,0,1.816,1.816,0,0,0-.9,1.626V69.091a19.936,19.936,0,0,0,.809,5.621,24.879,24.879,0,0,0-5.627,15.879l0,.375v7.215a7.648,7.648,0,0,0,7.687,7.611h1.45L240.5,131.853a6.655,6.655,0,0,0,13.112,2.289l3.356-18.844,3.778,21.205a6.655,6.655,0,0,0,13.112-2.289l-4.123-20.336a6.674,6.674,0,0,0,6.759-2.6,6.714,6.714,0,0,0,6.858.377,6.516,6.516,0,0,0,3.474-5.822l0-.92V90.484a24.881,24.881,0,0,0-5.672-15.821,20.006,20.006,0,0,0,.8-5.566V58.424a1.817,1.817,0,0,0-.913-1.594,1.855,1.855,0,0,0-1.851,0,1.882,1.882,0,0,0-.983,1.594ZM243.691,101.8a3.636,3.636,0,0,1-3.65-3.613V90.966c0-.148,0-.293,0-.441a1.739,1.739,0,0,0,0-.174,21.376,21.376,0,0,1,42.728-.617,6.688,6.688,0,0,0-9.936.963,6.712,6.712,0,0,0-5.4-.935,6.644,6.644,0,0,0-4.278,3.4,6.877,6.877,0,0,0-3.443-.934h-3.188a13.667,13.667,0,0,0,2.7-8.457,2.018,2.018,0,0,0-4.037,0c0,5.518-3.555,8.457-6.122,8.457a2,2,0,1,0,0,4h10.638a2.787,2.787,0,1,1,.006,5.574h-16.02Zm27.98-6.1,2.01,11.283a2.621,2.621,0,0,1-5.164.9L266.508,96.6a2.621,2.621,0,0,1,5.164-.9ZM246.6,135.555a2.6,2.6,0,0,1-2.127-3.008l4.765-26.756h5.323l-4.926,27.657A2.622,2.622,0,0,1,246.6,135.555Zm23.284-.625a2.62,2.62,0,0,1-5.165.881l-5.347-30.02h.341a6.866,6.866,0,0,0,4.088-1.357l.738,4.141,0,.01.006.035,5.337,26.309Zm10.806-26.54a2.62,2.62,0,0,1-3.036-2.106L275.647,95a2.621,2.621,0,0,1,5.163-.9l2.01,11.283a2.6,2.6,0,0,1-2.127,3.006Z" transform="translate(714.232 874.979)" fill="#fff"/>
    <path id="mobile-top-hands-2" data-name="mobile-top-hands" d="M31.435,140.166l-5.265-9.652a18.345,18.345,0,0,1-1.046-2.285c11.9,2.7,23.562-4.443,27.272-16.715a18.028,18.028,0,0,1,1.376,2.14l5.263,9.65a1.719,1.719,0,0,0,2.4.729,1.935,1.935,0,0,0,.6-2.565l-5.265-9.648a21.617,21.617,0,0,0-3.437-4.681,28.051,28.051,0,0,0-3.184-17.081l-3.8-6.966a7.185,7.185,0,0,0-10.038-3.048l-1.655,1.013a6.11,6.11,0,0,0-11.154,2.027,5.82,5.82,0,0,0-4.715.625,6.441,6.441,0,0,0-2.868,4.009,5.82,5.82,0,0,0-4.716.624,6.441,6.441,0,0,0-2.869,4.01,5.94,5.94,0,0,0-6.576,2.39,7.219,7.219,0,0,0-.326,7.522l.017.03L8.621,115.43a25.765,25.765,0,0,0,12.446,11.484,22.527,22.527,0,0,0,2.1,5.436L28.432,142a1.716,1.716,0,0,0,2.389.709,1.929,1.929,0,0,0,.614-2.545Zm6.851-56.508a3.413,3.413,0,0,1,4.768,1.448l3.8,6.964c5.475,10.036,2.949,22.688-5.786,29s-20.717,4.124-27.457-5a6.244,6.244,0,0,0,5.045-4.805,5.82,5.82,0,0,0,4.714-.624,6.441,6.441,0,0,0,2.869-4.008,5.947,5.947,0,0,0,6.739-2.638,17.081,17.081,0,0,0,1.512,3.735,1.882,1.882,0,0,0,2.634.8,2.119,2.119,0,0,0,.665-2.815c-2.726-4.992-1.27-9.427.827-10.71a2.033,2.033,0,0,0,.936-1.777,2.178,2.178,0,0,0-.987-1.807,1.8,1.8,0,0,0-1.921-.032L27.951,96.7a2.627,2.627,0,0,1-3.677-1.111,2.956,2.956,0,0,1,.92-3.928l13.093-8ZM17.98,105.98,12.32,95.613l-.019-.03a2.753,2.753,0,0,1,.884-3.651A2.45,2.45,0,0,1,16.6,93l5.658,10.369.013.024a2.753,2.753,0,0,1-.868,3.655A2.449,2.449,0,0,1,17.984,106l-.006-.016Zm11.941-5.664.276-.167a2.554,2.554,0,0,1-1.828,2.5,2.492,2.492,0,0,1-2.793-1.279l-.013-.024-.173-.317a6.028,6.028,0,0,0,4.531-.717Zm-6.2-12.579-.5.309a6.636,6.636,0,0,0-2.848,3.793l-.465-.859a.04.04,0,0,1-.011-.02,2.787,2.787,0,0,1,.577-3.426,2.371,2.371,0,0,1,3.252.2ZM31.306,83.1l-4.1,2.5a2.7,2.7,0,0,1,1.138-2.916,2.381,2.381,0,0,1,2.96.414ZM4.739,100.247l-.009-.014A2.756,2.756,0,0,1,5.6,96.6,2.446,2.446,0,0,1,9.008,97.6l.013.024.022.039,5.647,10.343a2.754,2.754,0,0,1-.886,3.633,2.446,2.446,0,0,1-3.407-1.028l-5.66-10.369Zm435.779,21.425,5.082-9.319a16.7,16.7,0,0,1,1.307-2.025c3.881,12,15.556,19.114,27.313,16.638a17.134,17.134,0,0,1-1.022,2.254l-5.083,9.315a1.9,1.9,0,0,0,.635,2.508,1.684,1.684,0,0,0,2.37-.672l5.082-9.317a21,21,0,0,0,2.016-5.313,24.293,24.293,0,0,0,12.12-10.968l6.846-12.55a7.1,7.1,0,0,0-2.374-9.346,6.177,6.177,0,0,0-2.584-.871l7.7-14.114a6.987,6.987,0,0,0,.115-6.432,6.275,6.275,0,0,0-5.086-3.523A6.808,6.808,0,0,0,492,60.594a6.02,6.02,0,0,0-7.489.959,6.179,6.179,0,0,0-5.425-2.9,6.242,6.242,0,0,0-5.205,3.32l-.089.164a6.153,6.153,0,0,0-5.4-2.656,6.251,6.251,0,0,0-5.069,3.314L448.806,89.4a26.505,26.505,0,0,0-2.906,16.654,20.194,20.194,0,0,0-3.3,4.466l-5.082,9.319a1.9,1.9,0,0,0,.663,2.454,1.681,1.681,0,0,0,2.34-.617Zm17.288-40.707,8.812-16.153a2.4,2.4,0,0,1,3.375-.977,2.7,2.7,0,0,1,.923,3.572l-8.825,16.171a2.081,2.081,0,0,0,.7,2.754,1.849,1.849,0,0,0,2.6-.739l8.81-16.147.026-.045,2.951-5.41a2.4,2.4,0,0,1,3.33-.91,2.7,2.7,0,0,1,.972,3.491L469.674,88.213a2.081,2.081,0,0,0,.7,2.752v0a1.849,1.849,0,0,0,2.6-.739l11.787-21.6.039-.073,1.914-3.507a2.4,2.4,0,0,1,3.379-.96A2.7,2.7,0,0,1,491,67.661l-13.74,25.186a2.079,2.079,0,0,0,.73,2.691,1.845,1.845,0,0,0,2.567-.677l11.787-21.6a2.4,2.4,0,0,1,3.38-.958,2.7,2.7,0,0,1,.906,3.577L486.024,95.315l-.039.069-4.477,8.206a4.155,4.155,0,0,1-5.82,1.649,1.849,1.849,0,0,0-2.6.741l0,.006a2.082,2.082,0,0,0,.706,2.75,7.856,7.856,0,0,0,10.96-3.042c.015-.03.034-.053.05-.083l4.5-8.243a2.577,2.577,0,0,1,3.635-1,2.9,2.9,0,0,1,.949,3.847l-6.847,12.55c-5.57,10.209-17.906,13.7-27.553,7.809s-12.95-18.95-7.379-29.158ZM238.974,84.393,238.91,73.63a17.284,17.284,0,0,1,.173-2.443,22.949,22.949,0,0,0,31.517-.045,17.727,17.727,0,0,1,.179,2.492V84.391a1.863,1.863,0,0,0,.85,1.64,1.653,1.653,0,0,0,1.768,0,1.863,1.863,0,0,0,.85-1.64V73.634a21.4,21.4,0,0,0-.763-5.67,26.189,26.189,0,0,0,5.31-16.017l0-.378V44.291a7.474,7.474,0,0,0-7.253-7.678h-1.368l4.377-26.288a6.625,6.625,0,0,0-5.1-7.7,6.323,6.323,0,0,0-7.277,5.392l-3.167,19.008-3.565-21.39A6.323,6.323,0,0,0,248.169.242a6.625,6.625,0,0,0-5.1,7.7l3.891,20.513a6.1,6.1,0,0,0-6.378,2.618,5.99,5.99,0,0,0-6.471-.38,6.65,6.65,0,0,0-3.278,5.873l0,.928V52.055a26.18,26.18,0,0,0,5.352,15.958,21.393,21.393,0,0,0-.752,5.615V84.393A1.86,1.86,0,0,0,236.3,86a1.653,1.653,0,0,0,1.747,0,1.918,1.918,0,0,0,.927-1.608Zm32.569-43.749a3.556,3.556,0,0,1,3.444,3.645v7.28c0,.15,0,.3,0,.445q0,.088,0,.175c-.069,11.612-8.9,21.035-19.872,21.2s-20.06-8.976-20.447-20.582a6.06,6.06,0,0,0,4.9,1.759,6.207,6.207,0,0,0,4.48-2.73,6,6,0,0,0,5.1.943,6.364,6.364,0,0,0,4.037-3.426,6.173,6.173,0,0,0,3.249.942h3.009a14.429,14.429,0,0,0-2.551,8.531,1.908,1.908,0,1,0,3.809,0c0-5.566,3.355-8.531,5.777-8.531a2.019,2.019,0,0,0,0-4.031H256.431a2.816,2.816,0,0,1-.006-5.623h15.117ZM245.14,46.8l-1.9-11.382a2.609,2.609,0,0,1,2.006-3.034,2.49,2.49,0,0,1,2.867,2.123l1.9,11.384a2.609,2.609,0,0,1-2.006,3.034,2.49,2.49,0,0,1-2.867-2.123ZM268.795,6.592A2.613,2.613,0,0,1,270.8,9.626l-4.5,26.989h-5.023l4.649-27.9a2.492,2.492,0,0,1,2.863-2.126Zm-21.972.63A2.607,2.607,0,0,1,248.84,4.2,2.49,2.49,0,0,1,251.7,6.334l5.045,30.281h-.322a6.207,6.207,0,0,0-3.858,1.369l-.7-4.177,0-.01-.006-.035L246.823,7.224Zm-10.2,26.77a2.49,2.49,0,0,1,2.865,2.124l1.9,11.382a2.609,2.609,0,0,1-2.007,3.032,2.49,2.49,0,0,1-2.865-2.124l-1.9-11.382a2.611,2.611,0,0,1,2.007-3.032Z" transform="translate(1451.948 289.345) rotate(90)" fill="#fff"/>
    <path id="mobile-bottom-hands-2" data-name="mobile-bottom-hands" d="M498.141,3.132l5.579,9.569a17.353,17.353,0,0,1,1.109,2.266,24.736,24.736,0,0,0-28.9,16.571,17.74,17.74,0,0,1-1.458-2.121l-5.577-9.567a1.885,1.885,0,0,0-2.545-.723,1.846,1.846,0,0,0-.639,2.543l5.579,9.565a21.573,21.573,0,0,0,3.642,4.641A26.288,26.288,0,0,0,478.3,52.809l4.029,6.906a7.88,7.88,0,0,0,10.638,3.022l1.754-1a6.875,6.875,0,0,0,6.645,2.729,6.46,6.46,0,0,0,5.175-4.738,6.537,6.537,0,0,0,5-.619,6.422,6.422,0,0,0,3.039-3.974,6.537,6.537,0,0,0,5-.619,6.422,6.422,0,0,0,3.04-3.975,6.521,6.521,0,0,0,6.968-2.369,6.768,6.768,0,0,0,.345-7.457l-.018-.029-7.6-13.026a26.7,26.7,0,0,0-13.189-11.385,21.419,21.419,0,0,0-2.224-5.389l-5.581-9.569a1.883,1.883,0,0,0-2.531-.7,1.841,1.841,0,0,0-.651,2.523Zm-7.26,56.02a3.742,3.742,0,0,1-5.053-1.436l-4.029-6.9c-5.8-9.949-3.127-22.493,6.132-28.745s21.955-4.088,29.1,4.957a6.448,6.448,0,0,0-5.347,4.764,6.537,6.537,0,0,0-5,.619,6.422,6.422,0,0,0-3.04,3.973A6.506,6.506,0,0,0,496.5,39a16.4,16.4,0,0,0-1.6-3.7,2.063,2.063,0,0,0-2.792-.793,2.021,2.021,0,0,0-.7,2.791c2.888,4.949,1.345,9.346-.876,10.617a1.982,1.982,0,0,0-.992,1.762,2.13,2.13,0,0,0,1.046,1.791,2.02,2.02,0,0,0,2.036.031l9.214-5.266a2.881,2.881,0,0,1,3.9,1.1,2.82,2.82,0,0,1-.975,3.895l-13.876,7.93ZM512.4,37.024l6,10.278.02.029a2.628,2.628,0,0,1-.937,3.619,2.685,2.685,0,0,1-3.62-1.055l-6-10.279-.014-.023a2.626,2.626,0,0,1,.919-3.623,2.686,2.686,0,0,1,3.626,1.037l.006.016Zm-12.654,5.615-.292.166a2.557,2.557,0,0,1,1.937-2.482,2.708,2.708,0,0,1,2.959,1.268l.014.023.183.314A6.767,6.767,0,0,0,499.747,42.639Zm6.568,12.471.533-.307a6.643,6.643,0,0,0,3.019-3.76l.493.852a.039.039,0,0,1,.012.02,2.6,2.6,0,0,1-4.058,3.2ZM498.279,59.7l4.34-2.481a2.6,2.6,0,0,1-1.205,2.891,2.652,2.652,0,0,1-3.137-.41Zm28.154-16.994.01.014a2.629,2.629,0,0,1-.917,3.606,2.685,2.685,0,0,1-3.616-1L521.9,45.3l-.024-.039L515.888,35.01a2.628,2.628,0,0,1,.939-3.6,2.683,2.683,0,0,1,3.61,1.02l6,10.279ZM64.623,21.467l-5.386,9.238a16.476,16.476,0,0,1-1.385,2.008A25.394,25.394,0,0,0,28.907,16.219a16.339,16.339,0,0,1,1.083-2.234L35.376,4.75A1.81,1.81,0,0,0,34.7,2.263a1.849,1.849,0,0,0-2.512.666l-5.386,9.237a20.015,20.015,0,0,0-2.137,5.268A25.221,25.221,0,0,0,11.825,28.307L4.571,40.748a6.779,6.779,0,0,0,2.515,9.268,6.872,6.872,0,0,0,2.738.863L1.661,64.87a6.532,6.532,0,0,0-.122,6.376,6.66,6.66,0,0,0,5.39,3.493,6.564,6.564,0,0,0,3.136,7.279A6.708,6.708,0,0,0,18,81.067a6.692,6.692,0,0,0,11.265-.418l.095-.162a6.693,6.693,0,0,0,11.1-.652L55.837,53.463a24.823,24.823,0,0,0,3.08-16.51,20.167,20.167,0,0,0,3.5-4.428L67.8,23.287a1.811,1.811,0,0,0-.7-2.432,1.85,1.85,0,0,0-2.479.612ZM46.3,61.823,36.964,77.837a2.637,2.637,0,0,1-3.577.969,2.582,2.582,0,0,1-.979-3.541L41.76,59.233a1.987,1.987,0,0,0-.74-2.731,2.029,2.029,0,0,0-2.758.732L28.926,73.243l-.028.045-3.127,5.363a2.637,2.637,0,0,1-3.529.9,2.582,2.582,0,0,1-1.031-3.461L33.725,54.637a1.987,1.987,0,0,0-.74-2.729v0a2.029,2.029,0,0,0-2.758.732L17.736,74.057l-.041.072-2.028,3.477a2.636,2.636,0,0,1-3.581.952,2.582,2.582,0,0,1-.961-3.546L25.685,50.043a1.987,1.987,0,0,0-.774-2.668,2.03,2.03,0,0,0-2.72.672L9.7,69.464a2.637,2.637,0,0,1-3.582.95,2.582,2.582,0,0,1-.96-3.546L16.4,47.6l.041-.068,4.745-8.135a4.563,4.563,0,0,1,6.167-1.635,2.029,2.029,0,0,0,2.75-.734l0-.006a1.989,1.989,0,0,0-.748-2.727,8.633,8.633,0,0,0-11.615,3.016c-.016.029-.036.053-.053.082l-4.765,8.172a2.831,2.831,0,0,1-3.852,1,2.771,2.771,0,0,1-1.005-3.814L15.325,30.3a21.492,21.492,0,0,1,29.2-7.742,21.045,21.045,0,0,1,7.82,28.907Zm231.9-3.4.067,10.67a16.049,16.049,0,0,1-.184,2.422,25.553,25.553,0,0,0-33.4.045,16.4,16.4,0,0,1-.189-2.471V58.426a1.816,1.816,0,0,0-.9-1.626,1.855,1.855,0,0,0-1.874,0,1.816,1.816,0,0,0-.9,1.626V69.091a19.936,19.936,0,0,0,.809,5.621,24.879,24.879,0,0,0-5.627,15.879l0,.375v7.215a7.648,7.648,0,0,0,7.687,7.611h1.45L240.5,131.853a6.655,6.655,0,0,0,13.112,2.289l3.356-18.844,3.778,21.205a6.655,6.655,0,0,0,13.112-2.289l-4.123-20.336a6.674,6.674,0,0,0,6.759-2.6,6.714,6.714,0,0,0,6.858.377,6.516,6.516,0,0,0,3.474-5.822l0-.92V90.484a24.881,24.881,0,0,0-5.672-15.821,20.006,20.006,0,0,0,.8-5.566V58.424a1.817,1.817,0,0,0-.913-1.594,1.855,1.855,0,0,0-1.851,0,1.882,1.882,0,0,0-.983,1.594ZM243.691,101.8a3.636,3.636,0,0,1-3.65-3.613V90.966c0-.148,0-.293,0-.441a1.739,1.739,0,0,0,0-.174,21.376,21.376,0,0,1,42.728-.617,6.688,6.688,0,0,0-9.936.963,6.712,6.712,0,0,0-5.4-.935,6.644,6.644,0,0,0-4.278,3.4,6.877,6.877,0,0,0-3.443-.934h-3.188a13.667,13.667,0,0,0,2.7-8.457,2.018,2.018,0,0,0-4.037,0c0,5.518-3.555,8.457-6.122,8.457a2,2,0,1,0,0,4h10.638a2.787,2.787,0,1,1,.006,5.574h-16.02Zm27.98-6.1,2.01,11.283a2.621,2.621,0,0,1-5.164.9L266.508,96.6a2.621,2.621,0,0,1,5.164-.9ZM246.6,135.555a2.6,2.6,0,0,1-2.127-3.008l4.765-26.756h5.323l-4.926,27.657A2.622,2.622,0,0,1,246.6,135.555Zm23.284-.625a2.62,2.62,0,0,1-5.165.881l-5.347-30.02h.341a6.866,6.866,0,0,0,4.088-1.357l.738,4.141,0,.01.006.035,5.337,26.309Zm10.806-26.54a2.62,2.62,0,0,1-3.036-2.106L275.647,95a2.621,2.621,0,0,1,5.163-.9l2.01,11.283a2.6,2.6,0,0,1-2.127,3.006Z" transform="translate(658.162 274.174) rotate(90)" fill="#fff"/>
  </g>
</svg>
