<?xml version="1.0" encoding="UTF-8"?>
<!DOCTYPE svg PUBLIC "-//W3C//DTD SVG 1.1//EN" "http://www.w3.org/Graphics/SVG/1.1/DTD/svg11.dtd">
<!-- Creator: CorelDRAW X6 -->
<svg xmlns="http://www.w3.org/2000/svg" xml:space="preserve" width="84.6668mm" height="145.665mm" version="1.1" style="shape-rendering:geometricPrecision; text-rendering:geometricPrecision; image-rendering:optimizeQuality; fill-rule:evenodd; clip-rule:evenodd"
viewBox="0 0 3543 6095"
 xmlns:xlink="http://www.w3.org/1999/xlink">
 <defs>
  <style type="text/css">
   <![CDATA[
    .fil0 {fill:#797979}
   ]]>
  </style>
 </defs>
 <g id="Plan_x0020_1">
  <metadata id="CorelCorpID_0Corel-Layer"/>
  <path class="fil0" d="M291 3440l-146 -825c-26,-149 72,-290 221,-315 149,-26 289,72 315,221l146 825c26,149 -72,290 -221,315 -149,26 -289,-72 -315,-221zm659 -118l-146 -825c-26,-149 72,-290 221,-315 149,-26 289,72 315,221l146 825c26,149 -72,289 -221,315 -148,26 -289,-73 -315,-221zm658 -253c-3,-158 126,-287 283,-290l1 0 1162 0c191,0 346,155 346,346l0 571c0,901 -741,1625 -1639,1618 -872,-6 -1586,-697 -1616,-1570l-7 -200 146 137c160,150 411,142 561,-17 12,-14 24,-27 35,-42l47 -63 65 44c180,122 425,77 550,-100 10,-15 20,-32 28,-48l39 -79 76 44c63,37 135,57 208,57l399 0 -102 133c-124,162 -179,364 -179,567 0,34 29,63 63,63 34,0 63,-29 63,-63 0,-185 51,-370 172,-513 86,-103 216,-187 354,-187 35,0 64,-28 65,-62 -1,-34 -28,-63 -62,-64l-773 0c-157,2 -286,-126 -289,-283zm-348 -998l-103 -22c-159,-34 -324,32 -419,163l-39 54 -55 -38c-188,-128 -445,-78 -573,110 -39,57 -63,123 -70,191l0 75c1,7 2,13 3,20l1 6 0 1061c0,406 138,798 394,1113l23 28 -10 35c-36,126 -55,257 -55,388l0 779c0,27 16,51 41,61l45 0c25,-9 42,-32 42,-59l0 -16 2 -4 0 -765c0,-64 4,-126 15,-189l20 -122 93 81c667,581 1659,580 2324,-4l93 -82 20 122c11,63 15,127 15,191l0 779c0,36 29,65 65,65 36,0 65,-29 65,-65l0 -779c0,-133 -19,-265 -55,-393l-10 -34 23 -28c236,-291 372,-651 390,-1025l0 -687c-22,-250 -233,-442 -484,-442l-188 0 348 -1984c39,-225 -110,-438 -335,-477 -225,-39 -438,111 -477,335l-312 1762 -339 -1936c-32,-185 -187,-325 -373,-340l-65 0c-13,1 -26,3 -39,5 -225,40 -374,254 -336,479l318 1588zm1463 582l-553 0 373 -2117 0 -1c28,-148 168,-245 317,-220 149,26 247,167 221,316l-358 2021zm-1177 163l-81 -442 0 -1c-128,-638 -256,-1277 -384,-1915l0 -1 0 -1c-26,-149 74,-290 224,-313 147,-25 287,75 313,221l405 2290 -122 0c-89,0 -175,31 -246,84l-107 79z"/>
 </g>
</svg>
