<?xml version="1.0" encoding="UTF-8"?>
<!DOCTYPE svg PUBLIC "-//W3C//DTD SVG 1.1//EN" "http://www.w3.org/Graphics/SVG/1.1/DTD/svg11.dtd">
<!-- Creator: CorelDRAW X6 -->
<svg xmlns="http://www.w3.org/2000/svg" xml:space="preserve" width="84.6667mm" height="140.194mm" version="1.1" style="shape-rendering:geometricPrecision; text-rendering:geometricPrecision; image-rendering:optimizeQuality; fill-rule:evenodd; clip-rule:evenodd"
viewBox="0 0 4088 6769"
 xmlns:xlink="http://www.w3.org/1999/xlink">
 <defs>
  <style type="text/css">
   <![CDATA[
    .fil0 {fill:#797979}
   ]]>
  </style>
 </defs>
 <g id="Plan_x0020_1">
  <metadata id="CorelCorpID_0Corel-Layer"/>
  <path class="fil0" d="M2565 3949l0 0zm-521 1829c-1032,0 -1875,-836 -1875,-1869l0 -2563c0,-170 138,-307 307,-307 169,0 307,137 307,307l0 1556c0,45 36,80 81,80 44,0 80,-36 81,-80l0 -2082c0,-169 138,-307 307,-307 169,0 307,137 307,307l0 2082c0,45 36,80 81,80 44,0 80,-36 81,-80l0 -2427c0,-170 138,-307 307,-307 169,0 307,137 307,307l0 2427c0,44 36,80 81,80 44,0 80,-36 81,-80l0 -2024c0,-170 138,-307 307,-307 169,0 307,137 307,307l0 2505 0 6 0 6 0 6 0 5c0,256 -209,464 -465,464 -44,0 -81,36 -81,80 0,44 36,80 81,80 344,0 626,-279 626,-623l0 -6 0 -6 0 -6 0 -5 0 -809c0,-178 145,-323 324,-323 178,0 324,144 324,323l0 1335c0,1033 -844,1869 -1875,1869zm0 167c482,0 949,-170 1317,-481l103 -87 28 133c21,99 31,200 31,302l0 870c0,48 40,87 88,87 48,0 88,-39 88,-87l0 -870c0,-182 -30,-363 -90,-535l-15 -43 29 -35c300,-365 464,-818 464,-1290l0 -1335c0,-271 -222,-490 -492,-490 -70,0 -139,15 -202,43l-114 52 0 -1301c0,-262 -214,-474 -476,-474 -67,0 -134,14 -196,42l-93 42 -19 -101c-50,-258 -299,-427 -557,-378 -175,34 -317,162 -367,333l-27 91 -86 -41c-64,-31 -135,-47 -206,-47 -262,0 -476,212 -476,474l0 138 -113 -48c-59,-25 -123,-38 -187,-38 -262,0 -476,212 -476,474l0 2563c0,473 163,926 464,1290l29 35 -15 43c-60,172 -90,353 -90,535l0 870c0,49 40,87 88,87 48,0 88,-39 88,-87l0 -870c0,-101 11,-203 31,-302l28 -133 103 87c368,311 835,481 1317,481z"/>
 </g>
</svg>
