<svg width="63" height="102" xmlns="http://www.w3.org/2000/svg"><path d="M31.407 84.736c-14.35 0-26.026-11.635-26.026-25.938V21.47a3.19 3.19 0 0 1 3.192-3.18 3.19 3.19 0 0 1 3.192 3.18v22.66c0 1.353 1.1 2.45 2.457 2.45a2.453 2.453 0 0 0 2.458-2.45V13.814a3.19 3.19 0 0 1 3.191-3.18 3.19 3.19 0 0 1 3.192 3.18v30.317c0 1.353 1.1 2.45 2.458 2.45a2.453 2.453 0 0 0 2.457-2.45V8.791a3.19 3.19 0 0 1 3.192-3.18 3.19 3.19 0 0 1 3.192 3.18v35.34c0 1.353 1.1 2.45 2.457 2.45a2.453 2.453 0 0 0 2.458-2.45V14.657a3.19 3.19 0 0 1 3.192-3.181 3.19 3.19 0 0 1 3.191 3.181V51.14c0 .056.005.111.009.167-.004.055-.009.11-.009.166 0 3.016-2.461 5.47-5.488 5.47a2.453 2.453 0 0 0-2.457 2.45c0 1.352 1.1 2.449 2.457 2.449 5.737 0 10.404-4.65 10.404-10.369 0-.056-.005-.111-.009-.166.004-.056.009-.11.009-.167V39.357a3.426 3.426 0 0 1 3.428-3.417 3.426 3.426 0 0 1 3.428 3.417v19.441c0 14.303-11.675 25.938-26.025 25.938zm30.94-45.379c0-4.585-3.743-8.315-8.343-8.315a8.314 8.314 0 0 0-3.428.737V14.657c0-4.455-3.637-8.08-8.107-8.08a8.08 8.08 0 0 0-3.334.718 8.112 8.112 0 0 0-15.748-.76 8.084 8.084 0 0 0-3.516-.8c-4.47 0-8.106 3.624-8.106 8.08v.23a8.085 8.085 0 0 0-3.192-.654c-4.47 0-8.107 3.624-8.107 8.079v37.328c0 7.41 2.636 14.215 7.021 19.538a24.891 24.891 0 0 0-1.372 8.17v12.676c0 1.352 1.1 2.449 2.458 2.449a2.453 2.453 0 0 0 2.457-2.45V86.507c0-1.405.146-2.794.432-4.153a30.864 30.864 0 0 0 19.945 7.282 30.864 30.864 0 0 0 19.944-7.282c.286 1.36.432 2.748.432 4.153v12.676c0 1.352 1.1 2.449 2.457 2.449a2.453 2.453 0 0 0 2.458-2.45V86.507a24.92 24.92 0 0 0-1.371-8.17c4.385-5.323 7.02-12.129 7.02-19.538V39.357z" fill="#213548" fill-rule="evenodd"/></svg>