<?xml version="1.0" encoding="UTF-8"?>
<!DOCTYPE svg PUBLIC "-//W3C//DTD SVG 1.1//EN" "http://www.w3.org/Graphics/SVG/1.1/DTD/svg11.dtd">
<!-- Creator: CorelDRAW X6 -->
<svg xmlns="http://www.w3.org/2000/svg" xml:space="preserve" width="84.6667mm" height="98.988mm" version="1.1" style="shape-rendering:geometricPrecision; text-rendering:geometricPrecision; image-rendering:optimizeQuality; fill-rule:evenodd; clip-rule:evenodd"
viewBox="0 0 40946 47872"
 xmlns:xlink="http://www.w3.org/1999/xlink">
 <defs>
  <style type="text/css">
   <![CDATA[
    .fil0 {fill:#797979}
   ]]>
  </style>
 </defs>
 <g id="Plan_x0020_1">
  <metadata id="CorelCorpID_0Corel-Layer"/>
  <path class="fil0" d="M1386 19807l-296 -2073 1952 759c1600,622 3422,250 4650,-949l855 -835 856 835c820,800 1920,1246 3065,1246 1145,0 2245,-447 3065,-1247l855 -834 855 834c820,800 1920,1247 3065,1247 655,0 1303,-146 1893,-428l2363 -1131 -648 2538c-249,976 -372,1981 -370,2988 1,266 214,481 481,481 264,0 480,-213 480,-478l0 -1c0,-2217 616,-4441 2061,-6159 1060,-1259 2646,-2278 4337,-2278l18 0 18 1c264,8 484,-202 492,-466 8,-264 -202,-485 -466,-493 -11,0 -22,0 -33,0l-19 0 -9004 0c-1989,0 -3604,-1613 -3603,-3602 1,-1989 1615,-3601 3603,-3601l2065 0 144 35c73,18 149,17 222,0l142 -34 7928 0 -3 -3 3039 2c2377,2 4308,1929 4308,4307l0 6153c0,10399 -8239,19381 -18741,19669 -2584,71 -5172,-372 -7580,-1314 -2393,-936 -4566,-2344 -6408,-4134 -295,-287 -581,-583 -857,-888l-26 -29 -24 -30c-12,-15 -26,-29 -39,-43l-28 -27 -26 -29c-2493,-2801 -4110,-6277 -4640,-9990zm3242 -1975c-1897,0 -3437,-1538 -3440,-3435 -1,-462 0,-924 0,-1385l0 -8387c0,-1898 1542,-3436 3439,-3437 1896,0 3440,1540 3440,3437l0 9770c0,1898 -1542,3438 -3440,3438zm7840 -83c-1852,0 -3357,-1501 -3357,-3354l0 -9771c0,-1852 1505,-3354 3356,-3355l1143 -1 0 201c1318,477 2215,1735 2215,3154l0 9770c0,1853 -1504,3355 -3357,3355zm7840 83c-1898,0 -3439,-1539 -3439,-3437l0 -3002 2035 1795c811,715 1851,1117 2927,1134l2547 0 -1139 1864c-624,1021 -1734,1646 -2931,1646zm20637 -1210l0 -6153c0,-3031 -2469,-5493 -5499,-5493l-2599 0 -101 -883c-268,-2329 -2255,-4092 -4598,-4093 -1205,0 -2362,470 -3224,1311l-696 679 -696 -680c-862,-842 -2020,-1311 -3224,-1311 -1204,0 -2361,470 -3223,1311l-696 679 -696 -680c-862,-842 -2020,-1311 -3224,-1311 -1205,0 -2362,470 -3224,1311l-696 679 -696 -679c-862,-841 -2020,-1312 -3225,-1312 -2549,0 -4628,2072 -4628,4623l0 12409c0,4663 1543,9115 4463,12754l404 503 -294 574c-1185,2315 -1806,4883 -1806,7484l0 8817c0,392 318,707 710,707 382,0 695,-302 708,-675l0 -8849c0,-1937 378,-3860 1108,-5654l531 -1307 1054 937c1771,1576 3799,2837 6002,3715 2588,1032 5385,1513 8168,1437 4074,-112 7970,-1482 11257,-3884l1144 -836 400 1359c404,1373 607,2801 607,4232l0 8817c0,392 318,707 709,707 391,0 709,-315 709,-707l0 -8817c0,-2050 -381,-4087 -1133,-5994l-236 -599 450 -461c3829,-3929 5992,-9181 5992,-14672zm-24076 -8487l0 -3512c0,-1897 1541,-3435 3437,-3437l521 -1 46 48c1282,214 2342,1138 2724,2388l484 1583 -2171 0c-1107,0 -2177,403 -3007,1135l-2035 1795zm15053 -2930l-7548 0 485 -1583c443,-1445 1777,-2433 3289,-2434 1511,-1 2850,991 3291,2435l483 1583z"/>
 </g>
</svg>
