<svg width="62" height="73" xmlns="http://www.w3.org/2000/svg"><path d="M4.96 20.43V8.343a3.194 3.194 0 0 1 3.192-3.188c1.76 0 3.192 1.43 3.192 3.188v14.08a3.194 3.194 0 0 1-3.192 3.189 3.194 3.194 0 0 1-3.192-3.188V20.43zM45.1 7.415h-6.105a3.197 3.197 0 0 1 3.053-2.26c1.436 0 2.654.954 3.053 2.26zm-12.04 16.67h.407a3.19 3.19 0 0 1-2.718 1.527 3.193 3.193 0 0 1-3.191-3.188v-.415a8.31 8.31 0 0 0 5.501 2.077zm-2.311-18.93c1.436 0 2.654.954 3.053 2.26h-.743a8.311 8.311 0 0 0-5.501 2.077v-1.15a3.193 3.193 0 0 1 3.19-3.188zm-11.298 0c1.76 0 3.192 1.43 3.192 3.188v14.08a3.193 3.193 0 0 1-3.192 3.189 3.194 3.194 0 0 1-3.192-3.188V8.343a3.194 3.194 0 0 1 3.192-3.189zm33.115 7.17a4.448 4.448 0 0 1 4.445 4.442v8.867c0 14.275-11.346 26.2-25.292 26.581-7.097.195-13.802-2.416-18.88-7.353-.402-.39-.787-.791-1.16-1.201a2.395 2.395 0 0 0-.195-.215 25.695 25.695 0 0 1-6.257-13.471 8.083 8.083 0 0 0 8.574-1.75 8.083 8.083 0 0 0 5.65 2.297 8.082 8.082 0 0 0 5.649-2.298 8.08 8.08 0 0 0 5.649 2.298 8.063 8.063 0 0 0 3.49-.79 18.903 18.903 0 0 0-.588 4.747c0 1.356 1.1 2.455 2.457 2.455a2.456 2.456 0 0 0 2.458-2.455c0-6.781 4.33-10.393 7.455-10.393a2.456 2.456 0 1 0 0-4.91H33.06a3.43 3.43 0 0 1-3.428-3.426 3.43 3.43 0 0 1 3.428-3.425h2.762a2.438 2.438 0 0 0 1.155.001h15.59zM8.948 69.65V56.944c0-2.618.512-5.2 1.491-7.608 5.9 5.248 13.45 8.005 21.415 7.787 6.318-.173 12.186-2.333 17.031-5.873a20.1 20.1 0 0 1 .816 5.694V69.65c0 1.356 1.1 2.455 2.457 2.455a2.456 2.456 0 0 0 2.458-2.455V56.944a24.88 24.88 0 0 0-1.733-9.165c5.577-5.723 9.043-13.576 9.043-22.146v-8.867c0-5.157-4.199-9.352-9.36-9.352H50.1c-.463-4.03-3.896-7.17-8.052-7.17a8.082 8.082 0 0 0-5.65 2.298 8.082 8.082 0 0 0-5.65-2.298A8.081 8.081 0 0 0 25.1 2.542 8.082 8.082 0 0 0 19.45.244a8.082 8.082 0 0 0-5.649 2.298A8.083 8.083 0 0 0 8.151.244C3.682.244.046 3.877.046 8.342v17.883c0 7.108 2.372 13.825 6.748 19.279a25.11 25.11 0 0 0-2.76 11.44V69.65c0 1.356 1.1 2.455 2.458 2.455a2.456 2.456 0 0 0 2.457-2.455z" fill="#213548" fill-rule="evenodd"/></svg>