<svg xmlns="http://www.w3.org/2000/svg" viewBox="0 0 184.3 312.1"><path d="M31.2 305.4v-39c0-3 .2-5.9.7-8.9 34.7 30.2 86.3 30.2 120.9-.2.5 3 .7 6 .7 9v39a6.7 6.7 0 0 0 13.4 0v-39c0-7-1-13.9-2.9-20.6 13.2-16.3 20.4-36.7 20.4-57.7v-28c0-15.4-12.5-27.8-27.8-27.8h-5.3L168 36.9c2.3-13.1-6.4-25.6-19.6-27.9-13.1-2.3-25.6 6.4-27.9 19.6l-12.2 68.9-13.6-77.6C92.4 6.8 79.9-2 66.8.3s-21.9 14.8-19.6 28l14.9 74.4c-9.3-2-18.9 1.8-24.5 9.5-11-7.5-26-4.6-33.5 6.4-2.7 4-4.2 8.7-4.2 13.5 0 1.1.1 2.3.3 3.4v52.8c0 21.1 7.2 41.5 20.5 57.9-1.9 6.6-2.9 13.5-2.9 20.4v39c0 3.7 2.9 6.7 6.6 6.7 3.7 0 6.7-2.9 6.7-6.6.1-.2.1-.2.1-.3zm125.2-158.6c7.3 0 13.2 5.9 13.2 13.2v28.6c-.3 42.7-35.1 77.2-77.9 76.9-41.5-.3-75.4-33.2-76.8-74.6 9.7 9.1 24.9 8.6 34-1.1.7-.8 1.4-1.6 2-2.4 10.9 7.4 25.7 4.7 33.3-6.1.6-.9 1.2-1.9 1.7-2.9 3.8 2.2 8.1 3.4 12.5 3.4H110c-5.9 7.7-9.8 18.2-9.8 30.9 0 4 3.3 7.3 7.3 7.3s7.3-3.3 7.3-7.3c0-20.2 12.9-30.9 22.2-30.9 4 0 7.3-3.2 7.4-7.2 0-4-3.2-7.3-7.2-7.4H98.4c-5.6.1-10.2-4.5-10.3-10.1-.1-5.6 4.5-10.2 10.1-10.3h58.2zM55.1 169.1l-7.3-41.3c-.9-5.2 2.5-10.1 7.7-11s10.1 2.5 11 7.7l7.3 41.3c.9 5.2-2.5 10.1-7.7 11-5.1.9-10.1-2.5-11-7.7zm90.8-145.7c5.2.9 8.6 5.8 7.7 11l-17.3 97.8H117l17.8-101.1c1-5.2 5.9-8.6 11.1-7.7zm-84.3 2.2c-.9-5.2 2.6-10.1 7.8-10.9 5.1-.9 10 2.6 10.9 7.7l19.4 109.8h-1.2c-5.3 0-10.5 1.8-14.8 5L80.9 122v-.1L61.6 25.6zm-39.1 97.1c5.2-.9 10.1 2.5 11 7.7l7.3 41.3c.9 5.2-2.5 10.1-7.7 11-5.2.9-10.1-2.5-11-7.7l-7.3-41.3c-.9-5.2 2.5-10.1 7.7-11z" fill="#213548"/></svg>